<svg aria-hidden="true" style="position:absolute;overflow:hidden" xmlns="http://www.w3.org/2000/svg"><defs><symbol id="icon-send" viewBox="0 0 32 32"><path fill="#fff" style="fill:var(--color1, #fff)" d="M32 0 0 18l10.227 3.788L26 7 14.002 23.186l.01.004-.012-.004V32l5.735-6.691L27 28l5-28z"/><symbol id="icon-email-black" viewBox="0 0 32 32"><path d="M26.667 5.333H5.334A2.663 2.663 0 0 0 2.681 8l-.013 16c0 1.467 1.2 2.667 2.667 2.667h21.333c1.467 0 2.667-1.2 2.667-2.667V8c0-1.467-1.2-2.667-2.667-2.667zM26.133 11l-9.427 5.893a1.346 1.346 0 0 1-1.413 0L5.866 11a1.132 1.132 0 1 1 1.2-1.92l8.933 5.587 8.933-5.587a1.132 1.132 0 1 1 1.2 1.92z"/></symbol><symbol id="icon-person-black" viewBox="0 0 32 32"><path d="M16 16c2.947 0 5.333-2.387 5.333-5.333S18.946 5.334 16 5.334c-2.947 0-5.333 2.387-5.333 5.333S13.054 16 16 16zm0 2.667c-3.56 0-10.667 1.787-10.667 5.333v1.333c0 .733.6 1.333 1.333 1.333h18.667c.733 0 1.333-.6 1.333-1.333V24c0-3.547-7.107-5.333-10.667-5.333z"/></symbol><symbol id="icon-phone-black" viewBox="0 0 32 32"><path d="m24.882 19.773-3.268-.373a2.561 2.561 0 0 0-2.11.733L17.137 22.5a19.357 19.357 0 0 1-8.478-8.478l2.38-2.38a2.561 2.561 0 0 0 .733-2.11l-.373-3.242a2.575 2.575 0 0 0-2.56-2.277H6.613c-1.454 0-2.663 1.209-2.573 2.663.682 10.987 9.469 19.761 20.443 20.443 1.454.09 2.663-1.119 2.663-2.573V22.32a2.55 2.55 0 0 0-2.264-2.547z"/></symbol><symbol id="icon-checkbox" viewBox="0 0 16 15"><path d="M14.222 1.667v11.666H1.778V1.667h12.444Zm0-1.667H1.778C.8 0 0 .75 0 1.667v11.666C0 14.25.8 15 1.778 15h12.444C15.2 15 16 14.25 16 13.333V1.667C16 .75 15.2 0 14.222 0Z" fill="#212121"/></symbol><symbol id="icon-checkbox-active" viewBox="0 0 16 15"><rect width="16" height="15" rx="2" fill="#2196F3"/><path d="m3.957 7.752-.069-.066-.069.065-.888.842-.076.072.076.073 3.496 3.334.069.066.069-.066 7.504-7.158.076-.073-.076-.072-.882-.841-.069-.066-.069.066-6.553 6.246-2.539-2.422Z" fill="#fff" stroke="#fff" stroke-width=".2"/></symbol></symbol><symbol id="icon-envelope" viewBox="0 0 32 32"><path d="M29 4H3C1.346 4 0 5.346 0 7v18c0 1.654 1.346 3 3 3h26c1.654 0 3-1.346 3-3V7c0-1.654-1.346-3-3-3zm0 2c.136 0 .265.028.383.077L16 17.676 2.617 6.077A.996.996 0 0 1 3 6h26zm0 20H3a1 1 0 0 1-1-1V8.19l13.345 11.565a.998.998 0 0 0 1.31 0L30 8.19V25a1 1 0 0 1-1 1z"/></symbol><symbol id="icon-group-5" viewBox="0 0 32 32"><path d="M3.602 23.02a.663.663 0 0 1 .169.45c.006.107-.015.213-.06.312s-.115.186-.202.257a1.207 1.207 0 0 1-.761.207H1.41v-2.853h1.31c.259-.016.515.051.726.189.084.065.152.147.196.239s.064.193.058.294a.622.622 0 0 1-.152.436.726.726 0 0 1-.399.223.773.773 0 0 1 .452.244zm-1.57-.431h.56a.562.562 0 0 0 .356-.095.317.317 0 0 0 .121-.278.325.325 0 0 0-.119-.278.574.574 0 0 0-.367-.096h-.551v.748zm.971 1.094c.045-.036.08-.08.103-.131s.033-.105.029-.159c.003-.055-.007-.11-.031-.161s-.059-.096-.105-.132a.615.615 0 0 0-.38-.103h-.588v.784h.595a.633.633 0 0 0 .376-.099zm3.277.563-.729-1.115h-.274v1.115H4.65v-2.853h1.187c.299-.019.595.068.826.243.166.155.266.359.282.575s-.053.431-.194.605a.985.985 0 0 1-.566.29l.776 1.14h-.682zm-1.003-1.504h.513c.356 0 .535-.144.535-.432.003-.059-.006-.118-.029-.173s-.057-.105-.102-.148a.593.593 0 0 0-.404-.116h-.519l.006.868zm4.431.93h-1.25l-.22.574h-.657l1.148-2.821h.711l1.143 2.821h-.657l-.216-.574zm-.168-.432-.457-1.204-.457 1.204h.913zm4.458 1.006h-.622l-1.396-1.94v1.94h-.621v-2.853h.621l1.396 1.951v-1.951h.622v2.853zm3.553-.683a1.3 1.3 0 0 1-.563.503 1.985 1.985 0 0 1-.875.18h-1.108v-2.853h1.108c.303-.007.603.053.875.176.238.11.435.283.563.498.128.232.195.488.195.748s-.067.516-.195.748zm-.713-.068c.178-.189.275-.431.275-.681s-.098-.491-.275-.681a1.147 1.147 0 0 0-.779-.243h-.432v1.847h.432c.285.016.565-.071.779-.243zM10.097 5.526s8.035 2.777 7.864 6.797v6.798s-8.028-2.779-7.861-6.798l-.003-6.797zM25.12 17.529a11.653 11.653 0 0 1 5.105-1.722v-2.128c-2.111.745-3.902 2.096-5.105 3.851z"/><path d="M24.208 18.17c1.242-2.29 3.395-4.057 6.016-4.937V7.101s-11.443 3.956-11.201 9.68v9.678s.51-.177 1.312-.509c0-.309 0-.622.037-.935.237-2.657 1.616-5.119 3.835-6.845z"/><path d="M23.12 21.765c.06-.671.194-1.335.4-1.982-1.382 1.491-2.218 3.34-2.392 5.289a8.456 8.456 0 0 0-.031.558c.65-.286 1.406-.642 2.201-1.062a9.17 9.17 0 0 1-.178-2.803zm.455.035a8.758 8.758 0 0 0 .142 2.538c3.126-1.713 6.639-4.359 6.504-7.557v-.279c-2.234.229-4.323 1.123-5.948 2.545a8.861 8.861 0 0 0-.697 2.754z"/></symbol><symbol id="icon-group-2" viewBox="0 0 32 32"><path d="M14.031 1.806h-.084a9.985 9.985 0 0 0-.388-.014h-.28c-.244 0-.494.006-.741.019a.523.523 0 0 0-.056 0 17.4 17.4 0 0 0-6.471 1.651l-.266.128v13.625l.623-.211a23.32 23.32 0 0 1 1.731-.513 21.155 21.155 0 0 1 4.982-.662v1.79a15.56 15.56 0 0 0-.655.019h-.051a19.948 19.948 0 0 0-3.833.588c-1.59.398-3.124.996-4.566 1.779V2.53A18.3 18.3 0 0 1 8.766.582 18.343 18.343 0 0 1 13.281 0h.263c.314.008.621.022.909.044.759.053 1.511.173 2.249.358v1.762a13.947 13.947 0 0 0-2.179-.329l-.045-.004c-.152-.013-.304-.026-.446-.026zm3.102 1.801c.391.03.796.044 1.205.044a19.352 19.352 0 0 0 4.747-.609c1.589-.4 3.123-.998 4.564-1.781v17.163a18.313 18.313 0 0 1-4.792 1.948 18.486 18.486 0 0 1-4.515.581 13.778 13.778 0 0 1-3.425-.404V3.274c.265.061.537.117.814.164.455.077.934.133 1.401.167zm8.734.133-.623.21c-.573.192-1.15.365-1.731.518a21.098 21.098 0 0 1-5.173.663c-.406 0-.78-.011-1.141-.034l-.497-.033v14.017l.427.038c.395.034.803.052 1.214.052a16.573 16.573 0 0 0 4.074-.527 17.107 17.107 0 0 0 3.184-1.144l.266-.128V3.742zM5.184 25.977a.912.912 0 0 0-.693-.28 1.034 1.034 0 0 0-.4.075.91.91 0 0 0-.512.518 1.023 1.023 0 0 0-.072.387v2.335c-.006.165.026.328.092.479.055.12.135.226.233.313a.815.815 0 0 0 .321.166c.114.032.231.048.349.049a.972.972 0 0 0 .892-.61.951.951 0 0 0 .075-.372v-.261h-.61v.208a.528.528 0 0 1-.036.208.359.359 0 0 1-.089.131.365.365 0 0 1-.128.067.425.425 0 0 1-.128.022.314.314 0 0 1-.286-.125.548.548 0 0 1-.081-.313v-2.177a.738.738 0 0 1 .075-.349.31.31 0 0 1 .299-.141.33.33 0 0 1 .272.131c.068.09.104.2.101.313v.202h.604v-.238a1.093 1.093 0 0 0-.279-.737zm3.626-.027a1.051 1.051 0 0 0-1.38 0 .961.961 0 0 0-.237.327 1.099 1.099 0 0 0-.089.452v2.239a1.08 1.08 0 0 0 .089.459c.055.12.136.227.237.313a.94.94 0 0 0 .322.197 1.028 1.028 0 0 0 .728 0c.121-.044.233-.111.33-.197a.948.948 0 0 0 .23-.313 1.08 1.08 0 0 0 .089-.459v-2.239a1.08 1.08 0 0 0-.089-.452 1.015 1.015 0 0 0-.23-.327zm-.285 3.019a.405.405 0 0 1-.121.324.445.445 0 0 1-.574 0 .397.397 0 0 1-.121-.324V26.73a.405.405 0 0 1 .121-.324.445.445 0 0 1 .574 0 .397.397 0 0 1 .121.324v2.239zm5.047 1V25.73h-.587l-.771 2.244h-.011l-.777-2.244h-.581v4.239h.606V27.39h.011l.593 1.823h.302l.598-1.823h.011v2.579h.606zm3.441-3.942a.84.84 0 0 0-.343-.232 1.363 1.363 0 0 0-.439-.066h-.9v4.239h.604v-1.656h.311c.189.009.376-.031.545-.116a.882.882 0 0 0 .332-.324 1.02 1.02 0 0 0 .139-.369c.024-.16.035-.321.033-.482a2.421 2.421 0 0 0-.059-.606.898.898 0 0 0-.223-.39zm-.312 1.292a.547.547 0 0 1-.056.221.346.346 0 0 1-.156.149.619.619 0 0 1-.285.053h-.275v-1.441h.311a.578.578 0 0 1 .272.053.349.349 0 0 1 .142.157.62.62 0 0 1 .053.236v.282c0 .099.006.2 0 .291h-.006zm3.173-1.589h-.495l-.934 4.239h.604l.177-.911h.823l.177.911h.604l-.957-4.239zm-.557 2.751.297-1.537h.011l.296 1.537h-.604zm4.46-.197h-.011l-.912-2.554h-.581v4.239h.604V27.42h.012l.923 2.549h.568V25.73h-.604v2.554zm3.691-2.554-.486 1.685h-.012l-.486-1.685h-.64l.83 2.447v1.792h.604v-1.792l.83-2.447h-.64zM3.5 31.166h.291v.817h.198v-.817h.29v-.167h-.778v.167zm2.447-.168-.381.984h.21l.081-.224h.392l.084.224h.215l-.391-.984h-.21zm-.031.595.134-.365.134.365h-.268zm2.45.027h.227v.127a.38.38 0 0 1-.233.083.244.244 0 0 1-.209-.093.411.411 0 0 1-.073-.257c0-.219.095-.329.283-.329a.206.206 0 0 1 .222.157l.195-.038c-.042-.192-.181-.289-.417-.289a.495.495 0 0 0-.344.127.494.494 0 0 0-.141.379.532.532 0 0 0 .126.369.477.477 0 0 0 .374.144.59.59 0 0 0 .417-.157v-.388h-.427v.166zm2.471-.622h-.199v.984h.69v-.167h-.49v-.817zm2.089 0h-.199v.984h.199v-.984zm2.043.658-.403-.657h-.193v.984h.185v-.643l.395.643h.198v-.984h-.182v.657zm1.846-.107h.49v-.167h-.49v-.216h.528v-.167h-.727v.984h.747v-.167h-.548v-.266zm4.477-.162h-.388v-.388h-.198v.984h.198v-.43h.388v.43h.198v-.984h-.198v.388zm1.857.162h.492v-.167h-.492v-.216h.529v-.167h-.727v.984h.746v-.167h-.548v-.266zm2.519 0c.171-.027.258-.117.258-.274a.236.236 0 0 0-.096-.219.553.553 0 0 0-.288-.058h-.417v.984h.198v-.412h.039a.261.261 0 0 1 .123.022.21.21 0 0 1 .07.072l.215.313h.237l-.12-.192a.685.685 0 0 0-.218-.236zm-.199-.136h-.146v-.247h.156a.526.526 0 0 1 .201.023.135.135 0 0 1 .033.046.133.133 0 0 1-.005.111.128.128 0 0 1-.037.043.547.547 0 0 1-.201.023zm2.098.136h.49v-.167h-.49v-.216h.529v-.167h-.729v.984h.747v-.167h-.548v-.266z"/></symbol><symbol id="icon-group-4" viewBox="0 0 32 32"><path d="M7.418 12.705h-.001c-1.001 0-1.812.721-1.812 1.61v.001c0 .889.811 1.61 1.812 1.61h.001c1.001 0 1.812-.721 1.812-1.61v-.001c0-.889-.811-1.61-1.812-1.61zm13.373-.515c-.003-1.235-.556-2.419-1.539-3.292s-2.314-1.365-3.704-1.368c-1.39.002-2.723.494-3.706 1.367s-1.537 2.058-1.54 3.293v6.811s10.488-1.038 10.489-6.81v-.001zM1.932 21.236c.003.86.388 1.683 1.072 2.291s1.61.95 2.577.953c.967-.003 1.893-.345 2.577-.953s1.069-1.431 1.072-2.29v-4.739s-7.298.723-7.298 4.738zm3.649.85c-.189 0-.373-.05-.531-.143s-.279-.226-.352-.381c-.073-.155-.091-.326-.055-.491s.128-.316.261-.435.304-.2.489-.233.378-.016.552.048.324.173.429.313a.783.783 0 0 1 .089.798.853.853 0 0 1-.207.277c-.089.079-.194.142-.31.185s-.241.065-.366.065v-.003zm7.375-.468h-.704v.727h-.367v-1.78h1.159v.297h-.792v.46h.704v.296zm1.763-.122c0 .175-.031.329-.093.461a.705.705 0 0 1-.662.414.715.715 0 0 1-.664-.41 1.043 1.043 0 0 1-.097-.455v-.088c0-.175.031-.329.094-.462a.707.707 0 0 1 .664-.415.73.73 0 0 1 .395.108.695.695 0 0 1 .268.307c.064.133.095.287.095.461v.08zm-.372-.081c0-.187-.033-.328-.1-.425s-.162-.146-.286-.146c-.123 0-.218.048-.285.144s-.101.236-.101.42v.087c0 .182.033.323.1.423s.163.15.289.15c.123 0 .218-.048.283-.144s.099-.238.1-.423v-.087zm1.561.463c0-.069-.025-.122-.074-.159s-.137-.077-.264-.117a1.942 1.942 0 0 1-.302-.122c-.202-.109-.303-.256-.303-.441 0-.096.027-.182.081-.257s.132-.135.234-.177c.102-.042.216-.064.342-.064s.24.023.34.07a.51.51 0 0 1 .314.48h-.367c0-.081-.026-.145-.077-.189s-.123-.068-.217-.068c-.089 0-.159.019-.209.058s-.075.087-.075.149c0 .058.029.107.087.146.059.039.145.076.258.11.209.063.361.14.456.234s.143.209.143.347c0 .154-.058.275-.175.363s-.273.131-.471.131c-.137 0-.261-.025-.374-.075s-.199-.119-.258-.207a.527.527 0 0 1-.088-.303h.368c0 .197.117.295.352.295.087 0 .155-.017.204-.052s.074-.085.074-.149zm1.957-1.016h-.545v1.483h-.367v-1.483h-.538v-.297h1.45v.297zm1.282.712h-.704v.477h.826v.295h-1.193v-1.78h1.191v.297h-.824v.424h.704v.287zm.996.12h-.292v.652h-.367v-1.78h.662c.21 0 .372.047.487.14s.171.226.171.397c0 .121-.026.223-.079.305s-.132.145-.238.193l.385.727v.017h-.394l-.334-.652zm-.292-.297h.296c.092 0 .164-.023.214-.07s.076-.112.076-.194a.268.268 0 0 0-.072-.198c-.047-.048-.12-.072-.219-.072h-.295v.534zm2.222.321v.627h-.367v-1.78h.694c.134 0 .251.025.352.074a.544.544 0 0 1 .317.516c0 .174-.06.312-.18.413-.119.1-.284.15-.495.15h-.322zm0-.297h.328c.097 0 .171-.023.221-.068a.25.25 0 0 0 .077-.195c0-.087-.026-.158-.077-.211s-.122-.081-.213-.083h-.336v.559zm2.32.153h-.704v.477h.826v.295h-1.193v-1.78h1.191v.297h-.824v.424h.704v.287zm1.702-.712h-.545v1.483h-.367v-1.483h-.538v-.297h1.45v.297zm1.281.712h-.704v.477h.826v.295h-1.193v-1.78h1.191v.297h-.824v.424h.704v.287zm.997.12h-.292v.652h-.367v-1.78h.662c.21 0 .372.047.487.14s.171.226.171.397c0 .121-.026.223-.079.305s-.132.145-.238.193l.385.727v.017h-.394l-.334-.652zm-.293-.297h.296c.092 0 .164-.023.214-.07s.076-.112.076-.194a.268.268 0 0 0-.072-.198c-.047-.048-.12-.072-.219-.072h-.295v.534zm2.156.481c0-.069-.025-.122-.074-.159s-.137-.077-.264-.117a1.942 1.942 0 0 1-.302-.122c-.202-.109-.303-.256-.303-.441 0-.096.027-.182.081-.257s.132-.135.234-.177c.102-.042.216-.064.342-.064s.24.023.34.07a.51.51 0 0 1 .314.48h-.367c0-.081-.026-.145-.077-.189s-.123-.068-.217-.068c-.09 0-.159.019-.209.058s-.075.087-.075.149c0 .058.029.107.087.146.059.039.145.076.258.11.209.063.361.14.456.234s.143.209.143.347c0 .154-.058.275-.175.363s-.274.131-.471.131c-.137 0-.262-.025-.374-.075s-.199-.119-.258-.207a.527.527 0 0 1-.088-.303h.368c0 .197.117.295.352.295.087 0 .155-.017.204-.052s.074-.085.074-.149z"/></symbol><symbol id="icon-instagram" viewBox="0 0 32 32"><path d="M31.969 9.408c-.075-1.7-.35-2.869-.744-3.882a7.806 7.806 0 0 0-1.851-2.838A7.867 7.867 0 0 0 26.542.844C25.523.45 24.36.175 22.66.1 20.947.019 20.403 0 16.059 0s-4.888.019-6.595.094c-1.7.075-2.869.35-3.882.744a7.803 7.803 0 0 0-2.838 1.85A7.867 7.867 0 0 0 .9 5.52C.506 6.539.231 7.702.156 9.402c-.081 1.713-.1 2.257-.1 6.601s.019 4.888.094 6.595c.075 1.7.35 2.869.744 3.882a7.895 7.895 0 0 0 1.85 2.838 7.867 7.867 0 0 0 2.832 1.844c1.019.394 2.182.669 3.882.744 1.706.075 2.25.094 6.595.094s4.888-.019 6.595-.094c1.7-.075 2.869-.35 3.882-.744a8.184 8.184 0 0 0 4.682-4.682c.394-1.019.669-2.182.744-3.882.075-1.707.094-2.251.094-6.595s-.006-4.888-.081-6.595zm-2.882 13.065c-.069 1.563-.331 2.407-.55 2.969a5.31 5.31 0 0 1-3.038 3.038c-.563.219-1.413.481-2.969.55-1.688.075-2.194.094-6.464.094s-4.782-.019-6.464-.094c-1.563-.069-2.407-.331-2.969-.55a4.926 4.926 0 0 1-1.838-1.194 4.974 4.974 0 0 1-1.194-1.838c-.219-.563-.481-1.413-.55-2.969-.075-1.688-.094-2.194-.094-6.464s.019-4.782.094-6.464c.069-1.563.331-2.407.55-2.969a4.868 4.868 0 0 1 1.2-1.838A4.974 4.974 0 0 1 6.639 3.55c.563-.219 1.413-.481 2.969-.55 1.688-.075 2.194-.094 6.464-.094 4.276 0 4.782.019 6.464.094 1.563.069 2.407.331 2.969.55a4.914 4.914 0 0 1 1.838 1.194 4.974 4.974 0 0 1 1.194 1.838c.219.563.481 1.413.55 2.969.075 1.688.094 2.194.094 6.464s-.019 4.77-.094 6.458z"/><path d="M16.059 7.783c-4.538 0-8.22 3.682-8.22 8.22s3.682 8.22 8.22 8.22c4.539 0 8.22-3.682 8.22-8.22s-3.682-8.22-8.22-8.22zm0 13.552a5.333 5.333 0 0 1 0-10.664 5.333 5.333 0 0 1 0 10.664zM26.524 7.458a1.919 1.919 0 1 1-3.838 0 1.919 1.919 0 0 1 3.838 0z"/></symbol><symbol id="icon-instagram" viewBox="0 0 32 32"><path d="M31.969 9.408c-.075-1.7-.35-2.869-.744-3.882a7.806 7.806 0 0 0-1.851-2.838A7.867 7.867 0 0 0 26.542.844C25.523.45 24.36.175 22.66.1 20.947.019 20.403 0 16.059 0s-4.888.019-6.595.094c-1.7.075-2.869.35-3.882.744a7.803 7.803 0 0 0-2.838 1.85A7.867 7.867 0 0 0 .9 5.52C.506 6.539.231 7.702.156 9.402c-.081 1.713-.1 2.257-.1 6.601s.019 4.888.094 6.595c.075 1.7.35 2.869.744 3.882a7.895 7.895 0 0 0 1.85 2.838 7.867 7.867 0 0 0 2.832 1.844c1.019.394 2.182.669 3.882.744 1.706.075 2.25.094 6.595.094s4.888-.019 6.595-.094c1.7-.075 2.869-.35 3.882-.744a8.184 8.184 0 0 0 4.682-4.682c.394-1.019.669-2.182.744-3.882.075-1.707.094-2.251.094-6.595s-.006-4.888-.081-6.595zm-2.882 13.065c-.069 1.563-.331 2.407-.55 2.969a5.31 5.31 0 0 1-3.038 3.038c-.563.219-1.413.481-2.969.55-1.688.075-2.194.094-6.464.094s-4.782-.019-6.464-.094c-1.563-.069-2.407-.331-2.969-.55a4.926 4.926 0 0 1-1.838-1.194 4.974 4.974 0 0 1-1.194-1.838c-.219-.563-.481-1.413-.55-2.969-.075-1.688-.094-2.194-.094-6.464s.019-4.782.094-6.464c.069-1.563.331-2.407.55-2.969a4.868 4.868 0 0 1 1.2-1.838A4.974 4.974 0 0 1 6.639 3.55c.563-.219 1.413-.481 2.969-.55 1.688-.075 2.194-.094 6.464-.094 4.276 0 4.782.019 6.464.094 1.563.069 2.407.331 2.969.55a4.914 4.914 0 0 1 1.838 1.194 4.974 4.974 0 0 1 1.194 1.838c.219.563.481 1.413.55 2.969.075 1.688.094 2.194.094 6.464s-.019 4.77-.094 6.458z"/><path d="M16.059 7.783c-4.538 0-8.22 3.682-8.22 8.22s3.682 8.22 8.22 8.22c4.539 0 8.22-3.682 8.22-8.22s-3.682-8.22-8.22-8.22zm0 13.552a5.333 5.333 0 0 1 0-10.664 5.333 5.333 0 0 1 0 10.664zM26.524 7.458a1.919 1.919 0 1 1-3.838 0 1.919 1.919 0 0 1 3.838 0z"/></symbol><symbol id="icon-linkedin" viewBox="0 0 32 32"><path d="M31.992 32v-.001H32V20.263c0-5.741-1.236-10.164-7.948-10.164-3.227 0-5.392 1.771-6.276 3.449h-.093v-2.913h-6.364v21.364h6.627V21.42c0-2.785.528-5.479 3.977-5.479 3.399 0 3.449 3.179 3.449 5.657v10.401h6.62zM.528 10.636h6.635V32H.528V10.636zM3.843 0C1.722 0 0 1.721 0 3.843s1.721 3.879 3.843 3.879c2.121 0 3.843-1.757 3.843-3.879A3.846 3.846 0 0 0 3.843 0z"/></symbol><symbol id="icon-group-6" viewBox="0 0 32 32"><path d="M16.794 15.659a.917.917 0 0 1-.189-.622v-.902c0-.276.063-.486.188-.63s.34-.215.646-.215c.287 0 .491.061.611.183a.752.752 0 0 1 .181.54v.212h-.513v-.215a1.06 1.06 0 0 0-.015-.21.203.203 0 0 0-.073-.125.3.3 0 0 0-.186-.049.313.313 0 0 0-.195.051.241.241 0 0 0-.085.138 1.04 1.04 0 0 0-.02.223v1.094a.552.552 0 0 0 .066.307c.025.032.061.058.103.074s.087.022.133.017a.28.28 0 0 0 .182-.049.223.223 0 0 0 .077-.133c.012-.073.018-.146.016-.219v-.222h.513v.203c.014.2-.048.4-.177.567-.118.134-.319.201-.614.201s-.518-.072-.645-.22zm2.137.009c-.13-.14-.194-.345-.194-.615v-.948c0-.268.065-.471.194-.608s.346-.206.65-.206c.302 0 .517.068.647.206s.195.34.195.608v.948c0 .268-.066.473-.198.614s-.346.212-.645.212c-.298 0-.52-.072-.65-.211zm.889-.228a.533.533 0 0 0 .061-.281v-1.161a.512.512 0 0 0-.061-.275c-.026-.033-.062-.06-.105-.076s-.089-.022-.135-.016c-.046-.006-.093 0-.136.016s-.079.043-.105.075a.496.496 0 0 0-.061.275v1.167a.533.533 0 0 0 .061.281.33.33 0 0 0 .24.094c.045 0 .091-.008.132-.024s.079-.04.108-.07v-.006zm1.221-2.122h.552l.415 1.75.425-1.75h.538l.054 2.526h-.397l-.043-1.755-.41 1.755h-.319l-.425-1.762-.039 1.762h-.401l.05-2.526zm2.603 0h.861c.496 0 .744.239.744.717 0 .458-.261.686-.783.686h-.293v1.123h-.531l.003-2.526zm.736 1.08c.053.006.106.001.156-.012s.097-.037.136-.067a.41.41 0 0 0 .077-.285.805.805 0 0 0-.025-.229c-.007-.025-.021-.049-.039-.069s-.041-.038-.067-.051a.559.559 0 0 0-.237-.04h-.206v.755h.206zm1.635-1.08h.57l.585 2.526h-.495l-.116-.583h-.509l-.119.583h-.503l.585-2.526zm.487 1.651-.199-1.06-.199 1.06h.397zm1.141-1.651h.372l.712 1.441v-1.441h.441v2.526h-.354l-.716-1.504v1.504h-.456l.001-2.526zm2.557 1.563-.592-1.559h.498l.361 1.001.339-1.001h.488l-.584 1.559v.963h-.51v-.963zm-12.585 2.067v.132h-.433v1.026H17V17.08h-.436v-.132h1.05zm1.358 1.158h-.14a.06.06 0 0 1-.039-.011.07.07 0 0 1-.024-.027l-.125-.275h-.601l-.125.275a.077.077 0 0 1-.019.031.06.06 0 0 1-.039.011h-.14l.531-1.159h.185l.538 1.154zm-.879-.43h.502l-.212-.471a.747.747 0 0 1-.039-.109 4.63 4.63 0 0 1-.02.061l-.019.049-.21.471zm1.795.317h.1a.673.673 0 0 0 .233-.064v-.261h-.212c-.005 0-.011 0-.015-.002l-.013-.007c-.004-.003-.006-.006-.008-.01s-.003-.007-.002-.012v-.089h.412v.444a.818.818 0 0 1-.357.118 1.608 1.608 0 0 1-.155.007.84.84 0 0 1-.268-.043.662.662 0 0 1-.212-.121.56.56 0 0 1-.137-.183.573.573 0 0 1-.049-.24.598.598 0 0 1 .048-.242c.03-.069.077-.131.137-.183s.133-.093.212-.12a.884.884 0 0 1 .285-.043c.049 0 .099.003.148.01a.71.71 0 0 1 .233.076.698.698 0 0 1 .092.061l-.051.072c-.004.006-.01.012-.017.016s-.016.006-.024.006a.074.074 0 0 1-.033-.009c-.016-.007-.033-.017-.052-.028a.449.449 0 0 0-.071-.031.783.783 0 0 0-.098-.026.76.76 0 0 0-.34.022.409.409 0 0 0-.255.236.535.535 0 0 0 0 .386.456.456 0 0 0 .471.261zm1.693-.019h.58v.132h-.758v-1.159h.182l-.004 1.026zm1.184.132h-.182v-1.159h.182v1.159zm.676-1.153c.011.006.02.012.028.021l.777.873a.28.28 0 0 1 0-.041v-.862h.158v1.163h-.091a.086.086 0 0 1-.039-.006.106.106 0 0 1-.029-.022l-.776-.872v.9h-.152v-1.159h.095c.01 0 .02.002.03.006zm2.3-.005v.128h-.644v.382h.522v.123h-.522v.395h.644v.128h-.831v-1.156h.831zM6.705 9.794l8.066 1.978v6.929l-8.066-1.977v-6.93zm-.517-.591v7.857l9.1 2.232v-7.856l-9.1-2.233z"/><path d="m11.065 22.94-9.101-2.233V12.85l9.101 2.233v7.858zM6.339 9.705l7.962 1.953-3.386 2.924-7.962-1.954L6.34 9.705zm-.151-.502L1.964 12.85l9.101 2.233 4.223-3.647-9.1-2.233zm5.389 13.295 3.711-3.204-3.711-.91v4.115z"/></symbol><symbol id="icon-antenna" viewBox="0 0 30 32"><path fill="#212121" style="fill:var(--color3, #212121)" d="m29.859 22.098-8.443-8.505.937-4.615c.242.094.499.144.758.146h.006a2.159 2.159 0 1 0-2.008-1.435l-4.96.605L8.058.161a.534.534 0 0 0-.377-.16.532.532 0 0 0-.373.155L5.795 1.66a.534.534 0 0 0 0 .754l.814.826a14.943 14.943 0 0 0 2.519 17.663.513.513 0 0 0 .146.098c-.034.18-.051.364-.052.547v6.187h-6.4a2.67 2.67 0 0 0-2.667 2.667v1.067c0 .295.239.533.533.533h24.533a.533.533 0 0 0 .533-.533v-1.067a2.67 2.67 0 0 0-2.667-2.667h-6.4v-2.742a15.09 15.09 0 0 0 3.049.32 14.854 14.854 0 0 0 7.04-1.783l.818.823a.534.534 0 0 0 .377.16.532.532 0 0 0 .373-.155l1.513-1.504a.534.534 0 0 0 0-.754zM22.366 6.233a1.066 1.066 0 1 1 .752 1.822h-.003a1.067 1.067 0 0 1-.747-1.823h-.002zM21.11 9.738l-.598 2.946-1.175-1.182 1.774-1.763zm-.606-.902-1.92 1.909-1.485-1.493 3.405-.415zM23.09 28.8a1.6 1.6 0 0 1 1.6 1.6v.533H1.223V30.4a1.6 1.6 0 0 1 1.6-1.6H23.09zm-7.467-2.133v1.067H10.29v-1.067h5.333zM10.29 25.6v-4.053c0-1.294 1.196-2.347 2.667-2.347s2.667 1.053 2.667 2.347V25.6h-5.333zm6.4-1.696v-2.357c0-1.882-1.675-3.413-3.733-3.413a3.8 3.8 0 0 0-3.281 1.786A13.87 13.87 0 0 1 7.397 4.033l18.602 18.708a13.818 13.818 0 0 1-9.309 1.163zm11.289-.684L6.922 2.039l.755-.752 7.935 7.98c.004 0 .006.007.01.01l13.115 13.191-.757.752z"/><path fill="#2196f3" style="fill:var(--color1, #2196f3)" d="M12.961 20.267h-.005a1.6 1.6 0 1 0-.004 3.2h.005a1.6 1.6 0 1 0 .004-3.2zm.374 1.978a.534.534 0 0 1-.752-.756.534.534 0 0 1 .373-.155.532.532 0 0 1 .373.911h.005z"/></symbol><symbol id="icon-clock" viewBox="0 0 31 32"><path fill="#212121" style="fill:var(--color3, #212121)" d="M31.297 15.301C31.295 6.849 24.442-.002 15.989 0S.686 6.855.688 15.308a15.304 15.304 0 0 0 10.649 14.576.662.662 0 0 0 .529-.065.637.637 0 0 0 .283-.356l3.865-12.25a1.912 1.912 0 1 0-.84-3.635l-5.106-5.107a.637.637 0 0 0-.902.902l5.103 5.109a1.876 1.876 0 0 0 .536 2.309l-3.683 11.673C3.844 25.783.118 17.71 2.799 10.432S13.553-.572 20.831 2.109s11.004 10.754 8.323 18.032a14.042 14.042 0 0 1-7.462 7.973l-.398-1.874a.638.638 0 0 0-1.048-.344l-3.837 3.426a.637.637 0 0 0 .231 1.084l4.899 1.563a.638.638 0 0 0 .819-.74l-.391-1.839a15.255 15.255 0 0 0 9.329-14.089zm-15.305-.637a.638.638 0 1 1 0 1.277.638.638 0 0 1 0-1.277zm2.101 14.864 2.184-1.948.603 2.84-2.787-.892z"/><path fill="#2196f3" style="fill:var(--color1, #2196f3)" d="M15.354 3.185V4.46a.638.638 0 1 0 1.276 0V3.185a.638.638 0 0 0-1.276 0zM3.876 14.664a.638.638 0 0 0 0 1.276h1.275a.638.638 0 1 0 0-1.276H3.876zm24.232 1.275a.638.638 0 1 0 0-1.276h-1.275a.638.638 0 0 0 0 1.276h1.275z"/></symbol><symbol id="icon-graphic" viewBox="0 0 32 32"><path fill="#2196f3" style="fill:var(--color1, #2196f3)" d="M14.926 14.965h1.066v4.798h-1.066v-4.797zm4.264 2.132h1.066v2.665H19.19v-2.665zm-8.529 1.599h1.066v1.066h-1.066v-1.066zm-3.198-.533h1.066v1.599H7.463v-1.599z"/><path fill="#212121" style="fill:var(--color3, #212121)" d="M1.599 28.291h25.587a1.6 1.6 0 0 0 1.599-1.599V24.56a1.6 1.6 0 0 0-1.599-1.599h-.533V9.668L29.681 6.8a1.608 1.608 0 1 0-.746-.763L26.654 8.2V6.97a1.6 1.6 0 0 0-1.599-1.599H3.733A1.6 1.6 0 0 0 2.134 6.97v15.992h-.533a1.6 1.6 0 0 0-1.599 1.599v2.132a1.6 1.6 0 0 0 1.599 1.599zM30.384 4.837a.533.533 0 1 1 0 1.067.533.533 0 0 1 0-1.067zM3.198 6.969c0-.294.239-.533.533-.533h21.322c.294 0 .533.239.533.533v2.239l-1.066 1.013V8.035a.533.533 0 0 0-.533-.533H4.797a.533.533 0 0 0-.533.533v13.326c0 .294.239.533.533.533h19.19a.533.533 0 0 0 .533-.533v-9.674l1.066-1.01v12.284H3.198V6.969zm4.798 6.93a1.598 1.598 0 1 0 1.107 2.749l1.853.93a.532.532 0 0 0 .636-.123l3.939-4.431 3.872 2.901a.533.533 0 0 0 .686-.039l3.365-3.188v8.131H5.33V8.569h18.124v2.66l-3.771 3.572-3.904-2.927a.533.533 0 0 0-.718.072l-3.993 4.493-1.493-.746c.011-.064.018-.129.02-.193a1.6 1.6 0 0 0-1.599-1.599zm.533 1.599a.533.533 0 1 1-1.067 0 .533.533 0 0 1 1.067 0zm3.198 8.529h5.331v.533a.533.533 0 0 1-.533.533h-4.264a.533.533 0 0 1-.533-.533v-.533zm-10.661.533c0-.294.239-.533.533-.533h9.062v.533a1.6 1.6 0 0 0 1.599 1.599h4.264a1.6 1.6 0 0 0 1.599-1.599v-.533h9.062c.294 0 .533.239.533.533v2.132a.533.533 0 0 1-.533.533H1.598a.533.533 0 0 1-.533-.533V24.56z"/></symbol><symbol id="icon-astronaut" viewBox="0 0 32 32"><path fill="#2196f3" style="fill:var(--color1, #2196f3)" d="M31.974 4.524a.534.534 0 0 0-.43-.363l-1.91-.278-.855-1.731c-.179-.365-.777-.365-.956 0l-.855 1.731-1.91.278a.535.535 0 0 0-.296.91l1.383 1.348-.326 1.903c-.034.2.048.402.212.522a.53.53 0 0 0 .562.04l1.709-.899 1.709.899a.536.536 0 0 0 .775-.563l-.326-1.903 1.383-1.348a.536.536 0 0 0 .135-.547zm-2.463 1.327a.534.534 0 0 0-.153.472l.191 1.114-1-.526a.533.533 0 0 0-.498 0l-1.001.526.191-1.114a.534.534 0 0 0-.153-.472l-.81-.789 1.119-.163a.532.532 0 0 0 .402-.292l.5-1.013.5 1.013a.535.535 0 0 0 .402.292l1.119.163-.809.789zm-3.377 14.671h-1.067v1.067h1.067v-1.067zm0 2.134h-1.067v1.067h1.067v-1.067zm1.066-1.067h-1.067v1.067H27.2v-1.067zm-2.133 0H24v1.067h1.067v-1.067zm-2.667 4.8h-1.067v1.067H22.4v-1.067zm0 2.133h-1.067v1.067H22.4v-1.067zm1.067-1.066H22.4v1.067h1.067v-1.067zm-2.134 0h-1.067v1.067h1.067v-1.067zM16 24.256h-1.067v1.067H16v-1.067zm0 2.133h-1.067v1.067H16v-1.067zm1.067-1.067H16v1.067h1.067v-1.067zm-2.134 0h-1.067v1.067h1.067v-1.067zm-9.066-19.2H4.8v1.067h1.067V6.122zm0 2.133H4.8v1.067h1.067V8.255z"/><path fill="#2196f3" style="fill:var(--color1, #2196f3)" d="M6.933 7.189H5.866v1.067h1.067V7.189zm-2.133 0H3.733v1.067H4.8V7.189z"/><path fill="#212121" style="fill:var(--color3, #212121)" d="M24.715 14.159a1.775 1.775 0 0 0-1.188-.705 1.778 1.778 0 0 0-1.34.352l-1.252.96-1.898 1.417-1.358-.541c2.421-1.086 4.114-3.508 4.114-6.32 0-3.823-3.123-6.933-6.961-6.933s-6.961 3.11-6.961 6.933a6.86 6.86 0 0 0 1.12 3.758l-2.764-.024h-.005c-.009 0-.015.004-.023.005a.515.515 0 0 0-.155.031l-.038.013c-.006.003-.013.003-.019.006l-3.233 1.596-.001.001-1.893.911a.397.397 0 0 0-.063.035 1.779 1.779 0 0 0-.598 2.295c.22.429.595.745 1.056.889a1.776 1.776 0 0 0 1.378-.128l1.388-.738 2.264-1.169 1.357-.008L2.2 22.211l-.002.001-1.339 1.333c-.316.315-.49.732-.49 1.178s.174.863.49 1.179c.325.323.752.485 1.179.485s.854-.162 1.18-.485l1.314-1.309 1.741-1.3.901.897-1.762 1.754-.002.001-1.339 1.333c-.316.315-.49.732-.49 1.178s.174.863.49 1.179c.325.323.753.485 1.18.485s.855-.162 1.18-.485l3.482-3.467.001-.002 1.01-1-.004-.004c.006-.006.015-.009.022-.015l5.166-5.658 3.471.494a.52.52 0 0 0 .262-.033c.018-.006.033-.015.05-.023.019-.01.039-.015.058-.027l3.213-2.133c.012-.008.018-.021.029-.029.013-.01.029-.014.041-.026l1.271-1.191c.662-.62.753-1.635.212-2.362zM2.13 17.77a.714.714 0 0 1-.558.052.717.717 0 0 1-.213-1.26l1.314-.632.449 1.312-.992.528zm3.498-1.828-1.548.8-.439-1.283 2.027-1.001-.04 1.484zm15.099-6.62a5.79 5.79 0 0 1-.599 2.559l-4.181-1.899a1.863 1.863 0 0 0-.788-1.388l1.464-4.86c2.378.756 4.105 2.974 4.105 5.588zm-11.789 0c0-3.235 2.644-5.867 5.894-5.867.253 0 .5.021.745.052l-1.432 4.754c-.019-.001-.037-.006-.057-.006-1.033 0-1.873.837-1.873 1.867s.84 1.867 1.873 1.867c.694 0 1.294-.383 1.618-.945l3.862 1.755a5.894 5.894 0 0 1-4.737 2.39c-3.25 0-5.894-2.632-5.894-5.867zm5.956.8c0 .441-.362.8-.806.8s-.806-.359-.806-.8c0-.441.362-.8.806-.8s.806.359.806.8zM2.465 25.146a.608.608 0 0 1-.854.001.592.592 0 0 1 0-.844l.962-.958.851.848-.959.955zm3.214 3.734a.608.608 0 0 1-.855.001.592.592 0 0 1 0-.844l.963-.959.852.848-.96.955zm3.481-3.469-.002.001-1.765 1.76-.852-.848 1.763-1.755.002-.001c.04-.04.065-.088.09-.135.007-.014.02-.026.026-.04.017-.041.019-.085.026-.129.003-.025.014-.047.014-.073 0-.036-.013-.07-.02-.106-.006-.032-.006-.065-.019-.095a.55.55 0 0 0-.091-.138c-.01-.012-.014-.027-.025-.038h-.001l-.001-.002-1.607-1.6c-.017-.017-.039-.024-.058-.038a.507.507 0 0 0-.087-.058.515.515 0 0 0-.093-.033.507.507 0 0 0-.103-.02.5.5 0 0 0-.095.005.53.53 0 0 0-.104.02.477.477 0 0 0-.094.045c-.02.011-.042.015-.061.029L4.23 23.486l-.901-.897 2.399-2.386 4.361 4.289-.928.919zm6.819-7.017c-.015-.002-.03.004-.045.003a.556.556 0 0 0-.3.075.492.492 0 0 0-.083.061c-.013.011-.028.017-.04.029l-4.698 5.146-4.328-4.257 2.833-2.818a.534.534 0 0 0-.379-.911v-.001l-2.219.013.028-1.607 3.104.027a6.947 6.947 0 0 0 4.981 2.101c.437 0 .864-.045 1.279-.123.04.032.079.065.13.085l2.41.96.331 1.644-3.003-.427zm4.041.178-.313-1.558 1.446-1.08.947 1.257-2.08 1.381zm3.754-2.831-.838.785-.931-1.236.831-.637a.735.735 0 0 1 .543-.143.718.718 0 0 1 .48.284.713.713 0 0 1-.085.947z"/><path fill="#212121" style="fill:var(--color3, #212121)" d="m13.602 18.544-2.143-2.133a.534.534 0 0 0-.753 0l-2.142 2.133a.537.537 0 0 0 0 .756l2.142 2.133a.536.536 0 0 0 .753 0l2.143-2.133a.535.535 0 0 0 0-.756zm-2.519 1.759-1.387-1.381 1.387-1.381 1.387 1.381-1.387 1.381zm6.081-15.232-.258 1.036c.071.018 1.738.452 1.738 2.149h1.067c0-2.017-1.666-2.965-2.547-3.185zm2.547 4.251h-1.067v1.067h1.067V9.322z"/></symbol><symbol id="icon-twitter" viewBox="0 0 32 32"><path d="M32 6.078c-1.19.522-2.458.868-3.78 1.036a6.523 6.523 0 0 0 2.886-3.626 13.11 13.11 0 0 1-4.16 1.588A6.574 6.574 0 0 0 22.154 3c-3.632 0-6.556 2.948-6.556 6.562 0 .52.044 1.02.152 1.496-5.454-.266-10.28-2.88-13.522-6.862a6.605 6.605 0 0 0-.898 3.316 6.57 6.57 0 0 0 2.914 5.452 6.479 6.479 0 0 1-2.964-.808v.072c0 3.188 2.274 5.836 5.256 6.446a6.548 6.548 0 0 1-1.72.216 5.8 5.8 0 0 1-1.242-.112c.85 2.598 3.262 4.508 6.13 4.57a13.182 13.182 0 0 1-8.134 2.798c-.538 0-1.054-.024-1.57-.09A18.469 18.469 0 0 0 10.064 29c12.072 0 18.672-10 18.672-18.668 0-.29-.01-.57-.024-.848A13.087 13.087 0 0 0 32 6.078z"/></symbol><symbol id="icon-group-3" viewBox="0 0 32 32"><path d="M6.128 29.119a.082.082 0 0 1 .055.022l.142.136c-.11.11-.247.198-.4.258a1.576 1.576 0 0 1-.568.093 1.504 1.504 0 0 1-.534-.087 1.1 1.1 0 0 1-.662-.621 1.26 1.26 0 0 1-.091-.484 1.12 1.12 0 0 1 .374-.862c.122-.107.267-.19.427-.246.175-.059.362-.088.55-.087a1.47 1.47 0 0 1 .511.079c.141.053.27.127.383.218l-.119.145a.108.108 0 0 1-.03.026.087.087 0 0 1-.048.011.11.11 0 0 1-.052-.016l-.064-.039-.089-.05a1.137 1.137 0 0 0-.119-.048 1.47 1.47 0 0 0-.162-.039 1.366 1.366 0 0 0-.212-.016 1.17 1.17 0 0 0-.395.065.832.832 0 0 0-.511.473.978.978 0 0 0-.073.384c-.002.133.023.265.073.39.043.107.11.205.197.289.081.078.182.14.295.179.116.042.241.063.367.062a1.57 1.57 0 0 0 .217-.012.863.863 0 0 0 .469-.2.113.113 0 0 1 .068-.025zm4.111-.684c.002.164-.03.327-.096.481-.058.139-.149.267-.268.373s-.262.19-.421.245a1.74 1.74 0 0 1-1.082 0c-.158-.056-.3-.14-.418-.246a1.091 1.091 0 0 1-.271-.377 1.256 1.256 0 0 1 0-.963c.061-.14.153-.269.271-.379.119-.103.261-.183.418-.236a1.698 1.698 0 0 1 1.082 0c.158.056.301.139.42.246a1.111 1.111 0 0 1 .365.857zm-.374 0a1.013 1.013 0 0 0-.068-.387.793.793 0 0 0-.492-.471 1.246 1.246 0 0 0-.787 0 .858.858 0 0 0-.301.182.775.775 0 0 0-.192.289 1.129 1.129 0 0 0 0 .773.787.787 0 0 0 .493.47c.254.082.533.082.787 0a.85.85 0 0 0 .301-.181.82.82 0 0 0 .191-.289 1.01 1.01 0 0 0 .068-.387zm3.178.405.037.087a2.41 2.41 0 0 1 .087-.172l.909-1.436c.018-.025.034-.04.052-.045a.27.27 0 0 1 .075-.008h.269v2.336h-.318v-1.791a.534.534 0 0 1 0-.08l-.915 1.456c-.012.022-.03.04-.054.053s-.05.02-.078.019h-.052c-.028 0-.055-.006-.078-.019s-.042-.031-.053-.053l-.941-1.466v1.875h-.308v-2.331h.269a.237.237 0 0 1 .075.008c.022.009.04.025.05.045l.929 1.438a.484.484 0 0 1 .046.083zm3.422-.116v.875h-.356v-2.333h.794c.15-.003.299.015.443.051a.88.88 0 0 1 .313.145c.079.063.14.142.178.229a.701.701 0 0 1 .061.298.661.661 0 0 1-.258.531.919.919 0 0 1-.315.155 1.508 1.508 0 0 1-.429.054l-.431-.006zm0-.25h.431a.987.987 0 0 0 .276-.036.611.611 0 0 0 .199-.1.448.448 0 0 0 .164-.351c.004-.065-.008-.13-.036-.19s-.07-.115-.124-.159a.765.765 0 0 0-.479-.125h-.431v.962zm4.783 1.128h-.281a.132.132 0 0 1-.124-.076l-.242-.564h-1.215l-.251.564a.125.125 0 0 1-.044.053.132.132 0 0 1-.08.023h-.281l1.068-2.336h.37l1.082 2.336zm-1.762-.867h1.004l-.424-.951a1.597 1.597 0 0 1-.08-.219l-.041.122c-.012.037-.027.071-.039.099l-.42.949zm3.299-1.458c.021.01.039.024.053.042l1.557 1.761v-1.813h.318v2.336h-.178a.167.167 0 0 1-.073-.014.204.204 0 0 1-.057-.043l-1.555-1.76a.534.534 0 0 1 0 .08v1.736h-.318v-2.336h.189a.154.154 0 0 1 .064.011zm4.552 1.396v.928h-.356v-.928l-.984-1.407h.318a.13.13 0 0 1 .076.02.201.201 0 0 1 .048.053l.616.908c.025.039.046.074.064.108s.032.066.044.099l.046-.1a.816.816 0 0 1 .061-.107l.607-.914a.27.27 0 0 1 .046-.05.118.118 0 0 1 .076-.023h.322l-.986 1.413zm-14.47-5.327c.155.017.312.031.47.043 2.401-.933 4.432-2.46 5.84-4.391s2.129-4.179 2.074-6.463l-2.646-2.299c.538 2.433.286 4.947-.727 7.262s-2.748 4.34-5.01 5.848z"/><path d="m11.922 23.239.071.012c2.417-1.502 4.26-3.6 5.29-6.022s1.201-5.057.489-7.564l-3.769-3.274c1.524 2.692 2.138 5.704 1.769 8.686s-1.704 5.813-3.851 8.162zm12.781-8.005c-.64 2.51-2.195 4.775-4.434 6.456a14.06 14.06 0 0 1-2.107 1.314c1.823-.466 3.499-1.289 4.898-2.406s2.484-2.499 3.172-4.038l-1.528-1.326z"/><path d="m24.104 14.864-2.176-1.891c-.042 2.156-.747 4.262-2.043 6.101s-3.135 3.342-5.326 4.355h.011c.488 0 .976-.026 1.461-.076 2.048-.726 3.856-1.881 5.265-3.363s2.373-3.243 2.808-5.126zM12.237 5.01 9.641 2.751C7.32 3.53 5.324 4.9 3.914 6.681s-2.168 3.891-2.175 6.052c.009 2.389.934 4.707 2.63 6.587s4.064 3.216 6.732 3.795c2.381-2.52 3.775-5.635 3.98-8.891S14.29 7.74 12.238 5.01zm17.865 9.507c-.009-2.834-1.309-5.55-3.616-7.554s-5.432-3.134-8.694-3.142a13.821 13.821 0 0 0-4.408.713l15.895 13.81a9.371 9.371 0 0 0 .822-3.828z"/></symbol><symbol id="icon-group-1" viewBox="0 0 32 32"><path d="m4.085 0 4.771 4.517L0 4.512v21.915h23.149v-8.379l4.766 4.512V.001H4.085zm18.854 17.517L9.411 4.71h13.528v12.807zm-4.2 5.704H3.663V8.482h1.066v13.741h14.01v.998zM7.223 29.344l-.557 1.147-.557-1.147h-.467l.813 1.529v.891h.422v-.891l.811-1.529h-.465zm.7 2.42.196-.563h.938l.198.563h.439l-.916-2.42h-.377l-.914 2.42h.437zm.665-1.906.351 1.004h-.701l.351-1.004zm2.217.946a.55.55 0 0 0-.091.307c0 .204.072.37.214.497.144.126.336.189.575.189s.445-.065.618-.194l.136.161h.469l-.356-.421c.14-.191.209-.435.209-.733h-.351a.973.973 0 0 1-.101.444l-.467-.552.165-.12a.905.905 0 0 0 .251-.253.532.532 0 0 0 .076-.279.496.496 0 0 0-.17-.384.61.61 0 0 0-.432-.156.641.641 0 0 0-.465.166.591.591 0 0 0-.173.449c0 .078.018.158.055.241.038.083.104.184.198.303-.18.129-.3.24-.361.334zm1.092.535a.616.616 0 0 1-.382.136c-.121 0-.217-.035-.289-.105s-.108-.161-.108-.273c0-.13.067-.245.2-.346l.052-.037.529.623zm-.434-1.072c-.114-.141-.171-.258-.171-.351 0-.081.023-.148.07-.201s.109-.08.188-.08c.073 0 .133.023.181.068a.21.21 0 0 1 .072.161.298.298 0 0 1-.103.234l-.052.042-.184.126zm3.94 1.314c.166-.145.262-.347.286-.605h-.419c-.022.173-.075.296-.158.371s-.207.111-.372.111a.468.468 0 0 1-.412-.206c-.093-.137-.14-.337-.14-.598v-.214c.002-.258.052-.454.15-.587a.493.493 0 0 1 .422-.201c.157 0 .277.039.357.116.082.076.133.202.153.376h.419c-.027-.265-.121-.47-.284-.615s-.378-.218-.645-.218a.978.978 0 0 0-.525.141c-.151.094-.267.228-.347.402s-.121.375-.121.603v.226c.003.223.045.418.125.587s.193.299.339.391a.949.949 0 0 0 .51.136c.276 0 .497-.072.663-.216zm2.472-.339c.082-.18.123-.388.123-.625v-.135a1.462 1.462 0 0 0-.126-.62.924.924 0 0 0-.878-.552.957.957 0 0 0-.525.145.939.939 0 0 0-.354.414 1.484 1.484 0 0 0-.125.625v.136c.001.232.043.436.126.613a.962.962 0 0 0 .356.411.98.98 0 0 0 .525.143.97.97 0 0 0 .525-.143.932.932 0 0 0 .352-.412zm-.451-1.368c.102.143.153.349.153.617v.126c0 .273-.05.48-.151.622a.493.493 0 0 1-.429.213.503.503 0 0 1-.432-.218c-.103-.145-.155-.351-.155-.617v-.14c.002-.26.054-.462.156-.603a.496.496 0 0 1 .427-.214c.186 0 .33.072.43.214z"/></symbol><symbol id="icon-antenna" viewBox="0 0 30 32"><path d="m29.859 22.098-8.443-8.505.937-4.615c.242.094.499.144.758.146h.006a2.159 2.159 0 1 0-2.008-1.435l-4.96.605L8.058.161a.534.534 0 0 0-.377-.16.532.532 0 0 0-.373.155L5.795 1.66a.534.534 0 0 0 0 .754l.814.826a14.943 14.943 0 0 0 2.519 17.663.513.513 0 0 0 .146.098c-.034.18-.051.364-.052.547v6.187h-6.4a2.67 2.67 0 0 0-2.667 2.667v1.067c0 .295.239.533.533.533h24.533a.533.533 0 0 0 .533-.533v-1.067a2.67 2.67 0 0 0-2.667-2.667h-6.4v-2.742a15.09 15.09 0 0 0 3.049.32 14.854 14.854 0 0 0 7.04-1.783l.818.823a.534.534 0 0 0 .377.16.532.532 0 0 0 .373-.155l1.513-1.504a.534.534 0 0 0 0-.754zM22.366 6.233a1.066 1.066 0 1 1 .752 1.822h-.003a1.067 1.067 0 0 1-.747-1.823h-.002zM21.11 9.738l-.598 2.946-1.175-1.182 1.774-1.763zm-.606-.902-1.92 1.909-1.485-1.493 3.405-.415zM23.09 28.8a1.6 1.6 0 0 1 1.6 1.6v.533H1.223V30.4a1.6 1.6 0 0 1 1.6-1.6H23.09zm-7.467-2.133v1.067H10.29v-1.067h5.333zM10.29 25.6v-4.053c0-1.294 1.196-2.347 2.667-2.347s2.667 1.053 2.667 2.347V25.6h-5.333zm6.4-1.696v-2.357c0-1.882-1.675-3.413-3.733-3.413a3.8 3.8 0 0 0-3.281 1.786A13.87 13.87 0 0 1 7.397 4.033l18.602 18.708a13.818 13.818 0 0 1-9.309 1.163zm11.289-.684L6.922 2.039l.755-.752 7.935 7.98c.004 0 .006.007.01.01l13.115 13.191-.757.752z"/></symbol><symbol id="icon-clock" viewBox="0 0 31 32"><path d="M30.84 15.301C30.838 6.849 23.985-.002 15.532 0S.229 6.855.231 15.308A15.304 15.304 0 0 0 10.88 29.884a.662.662 0 0 0 .529-.065.637.637 0 0 0 .283-.356l3.865-12.25a1.912 1.912 0 1 0-.84-3.635L9.611 8.471a.637.637 0 0 0-.902.902l5.103 5.109a1.876 1.876 0 0 0 .536 2.309l-3.683 11.673C3.387 25.783-.339 17.71 2.342 10.432S13.096-.572 20.374 2.109s11.004 10.754 8.323 18.032a14.042 14.042 0 0 1-7.462 7.973l-.398-1.874a.638.638 0 0 0-1.048-.344l-3.837 3.426a.637.637 0 0 0 .231 1.084l4.899 1.563a.638.638 0 0 0 .819-.74l-.391-1.839a15.255 15.255 0 0 0 9.329-14.089zm-15.305-.637a.638.638 0 1 1 0 1.277.638.638 0 0 1 0-1.277zm2.1 14.864 2.184-1.948.603 2.84-2.787-.892z"/></symbol><symbol id="icon-graphic" viewBox="0 0 32 32"><path d="M1.599 28.291h25.587a1.6 1.6 0 0 0 1.599-1.599V24.56a1.6 1.6 0 0 0-1.599-1.599h-.533V9.668L29.681 6.8a1.608 1.608 0 1 0-.746-.763L26.654 8.2V6.97a1.6 1.6 0 0 0-1.599-1.599H3.733A1.6 1.6 0 0 0 2.134 6.97v15.992h-.533a1.6 1.6 0 0 0-1.599 1.599v2.132a1.6 1.6 0 0 0 1.599 1.599zM30.384 4.837a.533.533 0 1 1 0 1.067.533.533 0 0 1 0-1.067zM3.198 6.969c0-.294.239-.533.533-.533h21.322c.294 0 .533.239.533.533v2.239l-1.066 1.013V8.035a.533.533 0 0 0-.533-.533H4.797a.533.533 0 0 0-.533.533v13.326c0 .294.239.533.533.533h19.19a.533.533 0 0 0 .533-.533v-9.674l1.066-1.01v12.284H3.198V6.969zm4.798 6.93a1.598 1.598 0 1 0 1.107 2.749l1.853.93a.532.532 0 0 0 .636-.123l3.939-4.431 3.872 2.901a.533.533 0 0 0 .686-.039l3.365-3.188v8.131H5.33V8.569h18.124v2.66l-3.771 3.572-3.904-2.927a.533.533 0 0 0-.718.072l-3.993 4.493-1.493-.746c.011-.064.018-.129.02-.193a1.6 1.6 0 0 0-1.599-1.599zm.533 1.599a.533.533 0 1 1-1.067 0 .533.533 0 0 1 1.067 0zm3.198 8.529h5.331v.533a.533.533 0 0 1-.533.533h-4.264a.533.533 0 0 1-.533-.533v-.533zm-10.661.533c0-.294.239-.533.533-.533h9.062v.533a1.6 1.6 0 0 0 1.599 1.599h4.264a1.6 1.6 0 0 0 1.599-1.599v-.533h9.062c.294 0 .533.239.533.533v2.132a.533.533 0 0 1-.533.533H1.598a.533.533 0 0 1-.533-.533V24.56z"/></symbol><symbol id="icon-astronaut" viewBox="0 0 32 32"><path d="M29.935 13.626a2.04 2.04 0 0 0-1.364-.809 2.04 2.04 0 0 0-1.537.404l-1.437 1.102-2.178 1.626-1.558-.621c2.779-1.247 4.721-4.026 4.721-7.253 0-4.387-3.583-7.956-7.988-7.956s-7.988 3.569-7.988 7.956c0 1.59.476 3.069 1.285 4.313l-3.172-.028h-.005c-.01 0-.018.005-.027.005a.576.576 0 0 0-.178.036c-.015.005-.03.009-.044.015l-.022.007-3.71 1.832-.001.001-2.173 1.045a.432.432 0 0 0-.072.04 2.044 2.044 0 0 0 .525 3.654 2.038 2.038 0 0 0 1.582-.147l1.593-.847 2.598-1.342 1.557-.009-6.245 6.215-.002.001-1.536 1.53c-.363.361-.562.84-.562 1.351s.2.991.562 1.353c.373.371.863.557 1.353.557s.98-.186 1.354-.557l1.508-1.502 1.998-1.491 1.034 1.029-2.022 2.013-.002.001-1.536 1.53c-.363.361-.562.84-.562 1.351s.2.991.562 1.353c.373.371.864.557 1.354.557s.981-.186 1.354-.557l3.995-3.978.001-.002 1.159-1.148-.004-.004c.007-.007.018-.01.025-.018l5.928-6.493 3.983.567a.611.611 0 0 0 .301-.038c.02-.007.038-.017.057-.027.022-.011.045-.017.066-.031l3.687-2.448c.013-.009.021-.024.034-.034.015-.012.033-.016.046-.029l1.459-1.367a2.041 2.041 0 0 0 .243-2.71zM4.019 17.769a.814.814 0 0 1-.641.059.819.819 0 0 1-.244-1.446l1.507-.725.515 1.506-1.138.605zm4.013-2.097-1.777.918-.504-1.473 2.326-1.148-.045 1.703zm17.327-7.598a6.661 6.661 0 0 1-.687 2.937l-4.798-2.179a2.136 2.136 0 0 0-.905-1.593l1.68-5.577c2.728.868 4.71 3.413 4.71 6.412zm-13.528 0c0-3.712 3.034-6.732 6.764-6.732.29 0 .574.024.855.06l-1.643 5.455c-.022-.001-.043-.007-.066-.007-1.185 0-2.149.961-2.149 2.142s.964 2.142 2.149 2.142c.797 0 1.485-.44 1.857-1.084l4.432 2.014a6.761 6.761 0 0 1-5.436 2.743c-3.73 0-6.764-3.02-6.764-6.732zm6.835.918c0 .506-.415.918-.925.918s-.925-.412-.925-.918.415-.918.925-.918.925.412.925.918zM4.402 26.233a.698.698 0 0 1-.98.001.682.682 0 0 1 0-.968l1.104-1.1.977.973-1.1 1.096zm3.688 4.285a.698.698 0 0 1-.981.001.682.682 0 0 1 0-.968l1.105-1.1.977.973L8.09 30.52zm3.996-3.981-.002.001-2.025 2.02-.977-.973 2.023-2.014v-.001l.002-.001a.598.598 0 0 0 .103-.155c.008-.016.023-.029.03-.046.019-.047.022-.098.029-.148.004-.028.016-.054.016-.083 0-.041-.015-.081-.023-.121-.007-.037-.007-.074-.021-.11a.596.596 0 0 0-.105-.158c-.012-.013-.016-.031-.029-.043h-.001l-.001-.002-1.844-1.836c-.02-.02-.045-.028-.067-.044a.596.596 0 0 0-.1-.066.522.522 0 0 0-.107-.037.587.587 0 0 0-.118-.023.585.585 0 0 0-.11.006.596.596 0 0 0-.119.023.533.533 0 0 0-.108.051c-.023.013-.048.017-.07.033l-2.035 1.519L5.393 23.3l2.753-2.738 5.004 4.921-1.064 1.055zm7.825-8.052c-.018-.002-.034.004-.052.003a.65.65 0 0 0-.233.032.646.646 0 0 0-.206.124c-.015.013-.032.019-.046.034l-5.391 5.905-4.967-4.885 3.251-3.234a.613.613 0 0 0-.436-1.045v-.001l-2.546.015.032-1.845 3.562.031a7.973 7.973 0 0 0 5.716 2.411c.502 0 .991-.052 1.468-.141.046.037.091.074.149.097l2.765 1.102.379 1.886-3.446-.49zm4.637.205-.359-1.788 1.66-1.239 1.086 1.442-2.387 1.585zm4.307-3.249-.962.901-1.069-1.419.954-.731a.84.84 0 0 1 .623-.164.82.82 0 0 1 .453 1.413z"/></symbol><symbol id="icon-twitter" viewBox="0 0 32 32"><path d="M32 6.078c-1.19.522-2.458.868-3.78 1.036a6.523 6.523 0 0 0 2.886-3.626 13.11 13.11 0 0 1-4.16 1.588A6.574 6.574 0 0 0 22.154 3c-3.632 0-6.556 2.948-6.556 6.562 0 .52.044 1.02.152 1.496-5.454-.266-10.28-2.88-13.522-6.862a6.605 6.605 0 0 0-.898 3.316 6.57 6.57 0 0 0 2.914 5.452 6.479 6.479 0 0 1-2.964-.808v.072c0 3.188 2.274 5.836 5.256 6.446a6.548 6.548 0 0 1-1.72.216 5.8 5.8 0 0 1-1.242-.112c.85 2.598 3.262 4.508 6.13 4.57a13.182 13.182 0 0 1-8.134 2.798c-.538 0-1.054-.024-1.57-.09A18.469 18.469 0 0 0 10.064 29c12.072 0 18.672-10 18.672-18.668 0-.29-.01-.57-.024-.848A13.087 13.087 0 0 0 32 6.078z"/></symbol><symbol id="icon-facebook" viewBox="0 0 32 32"><path d="M20.529 5.313h2.921V.225C22.946.156 21.213 0 19.194 0c-4.212 0-7.097 2.649-7.097 7.519V12H7.449v5.688h4.648V32h5.699V17.689h4.46l.708-5.688h-5.169V8.082c.001-1.644.444-2.769 2.735-2.769z"/></symbol><symbol id="icon-phone" viewBox="0 0 32 32"><path d="M23 0H9C7.346 0 6 1.346 6 3v26c0 1.654 1.346 3 3 3h14c1.654 0 3-1.346 3-3V3c0-1.654-1.346-3-3-3zM9 2h14a1 1 0 0 1 1 1v21H8V3a1 1 0 0 1 1-1zm14 28H9a1 1 0 0 1-1-1v-3h16v3a1 1 0 0 1-1 1z"/></symbol></defs></svg>